<svg xmlns="http://www.w3.org/2000/svg" version="1.1" xmlns:xlink="http://www.w3.org/1999/xlink" xmlns:svgjs="http://svgjs.dev/svgjs" width="100%" height="100%" viewBox="0 0 1000 600"><rect width="1000" height="600" x="0" y="0" fill="white"/><g><circle r="166.66666666666666" cx="297.45434061686194" cy="319.67656450192504" fill="#424369" transform="matrix(0.9557474465372939,0,0,0.9557474465372939,0,-5.530081592609619)"/><path d="M178.4714511604453 394.6765785517068L158.7634224832432 394.6765785517068L158.7634224832432 252.36962879044782L259.5797855556557 252.36962879044782L259.5797855556557 269.36924416990576L178.4714511604453 269.36924416990576L178.4714511604453 315.00888952763694L252.31893288510753 315.00888952763694L252.31893288510753 331.80681455513525L178.4714511604453 331.80681455513525L178.4714511604453 394.6765785517068ZM300.46530118862324 265.01849514906144L282.19791788256157 265.01849514906144L282.19791788256157 244.67658250855754L300.46530118862324 244.67658250855754L300.46530118862324 265.01849514906144ZM300.46530118862324 394.6765785517068L282.19791788256157 394.6765785517068L282.19791788256157 285.5620981415251L300.46530118862324 285.5620981415251L300.46530118862324 394.6765785517068ZM386.9616492718991 394.6765785517068L367.25362059469694 394.6765785517068L367.25362059469694 269.5709345218654L318.5021812353023 269.5709345218654L318.5021812353023 252.36962879044782L436.14528224263586 252.36962879044782L436.14528224263586 269.5709345218654L386.9616492718991 269.5709345218654L386.9616492718991 394.6765785517068Z " fill="#141a46" transform="matrix(0.9557474465372939,0,0,0.9557474465372939,0,-5.530081592609619)"/><path d="M597.931079118018 394.6765768401209L597.931079118018 394.6765768401209Q587.2187967845017 394.6765768401209 578.7499243637637 390.3580127580227Q570.2530093191159 386.01140605201476 564.8127402806285 377.1218942726308L564.8127402806285 377.1218942726308L563.4106090851421 377.1218942726308L561.5878385310098 392.26491118388424L547.4543560805065 392.26491118388424L547.4543560805065 246.27501110983675L565.2053370153646 246.27501110983675L565.2053370153646 299.3877407948629L566.4392124673927 299.3877407948629Q570.0567109517478 293.7231307650977 574.9080848881308 290.3019306481108Q579.7594588245139 286.88073053112385 585.8166655890153 285.25425834435964Q591.8738723535166 283.6277861575953 598.7443152114002 283.6277861575953L598.7443152114002 283.6277861575953Q611.0550271077711 283.6277861575953 620.3371356218913 289.4886945547287Q629.6192441360115 295.3496029518619 634.7790869354016 307.46401648086476Q639.910887110882 319.5784300098675 639.910887110882 338.36698802938577L639.910887110882 338.36698802938577Q639.910887110882 358.13703788574446 634.8632148071308 370.55992027775426Q629.8155425033797 382.98280266976406 620.5334339892594 388.8437110668973Q611.2513254751392 394.6765768401209 597.931079118018 394.6765768401209ZM593.696642907649 379.14096319413125L593.696642907649 379.14096319413125Q602.7824530544011 379.14096319413125 608.9237876906318 375.4954220858665Q615.093164950772 371.8779236015115 618.3180667003908 363.4931790525027Q621.5429684500097 355.10843450349375 621.5429684500097 341.3955914116365L621.5429684500097 341.3955914116365L621.5429684500097 337.1331125773577Q621.5429684500097 323.8128662202365 618.514365067759 315.4281216712277Q615.4857616855082 307.0714197461285 609.2322565536388 303.1174097748568Q602.9787514217692 299.19144242749474 593.0797051816351 299.19144242749474L593.0797051816351 299.19144242749474Q587.4150951518698 299.19144242749474 582.3674228481186 301.0142129816271Q577.3197505443675 302.80894091184973 573.3937831970055 307.2677181134966Q569.4678158496436 311.6984526912338 567.3365764325041 319.18583327513136Q565.2053370153646 326.64517123511916 565.2053370153646 337.55375193600355L565.2053370153646 337.55375193600355L565.2053370153646 340.77865368562243Q565.2053370153646 353.2856639493614 568.1498125258862 361.7825789940092Q571.066245412498 370.2514514147473 577.4319210400065 374.71022861639403Q583.7975966675149 379.14096319413125 593.696642907649 379.14096319413125ZM704.3247942315287 394.6765768401209L704.3247942315287 394.6765768401209Q688.5928822181709 394.6765768401209 677.7684293890156 388.7315405712584Q666.97201918377 382.786504302396 661.4195796496438 370.44774978211535Q655.8671401155175 358.13703788574446 655.8671401155175 339.1521814988581L655.8671401155175 339.1521814988581Q655.8671401155175 319.9710267446037 661.4195796496438 307.7724853438717Q666.97201918377 295.5459013192301 677.8805998846545 289.6008650503676Q688.789180585539 283.6277861575953 705.1380303249108 283.6277861575953L705.1380303249108 283.6277861575953Q720.0847488687962 283.6277861575953 730.1800934762985 289.4045666829994Q740.2754380838009 295.15330458449387 745.4072382592813 306.5666525157534Q750.5670810586713 317.95195782310327 750.5670810586713 335.11404365585724L750.5670810586713 335.11404365585724L750.5670810586713 343.61095870050497L674.2350587763898 343.61095870050497Q674.6556981350358 356.3142673316121 677.9927703802935 364.50271351325284Q681.3018000016415 372.6911596948936 687.9759444921568 376.4208286748875Q694.6500889826723 380.1504976548814 704.7454335901746 380.1504976548814L704.7454335901746 380.1504976548814Q711.5878338241484 380.1504976548814 716.7476766235385 378.43989759638805Q721.9075194229285 376.7292975378946 725.4408900355544 373.47635316436606Q728.9742606481802 370.2514514147473 730.7689885784029 365.8207168370101Q732.5917591325351 361.3619396353632 732.7880574999033 356.117968964244L732.7880574999033 356.117968964244L750.1744843239351 356.117968964244Q749.9501433326573 364.61488400889175 746.9215399504066 371.7657531058726Q743.8929365681558 378.9446648267631 738.0600707949322 383.99233713051433Q732.199162397799 389.04000943426547 723.7022473531512 391.872314449148Q715.2333749324131 394.6765768401209 704.3247942315287 394.6765768401209ZM674.6556981350358 330.2907123433839L674.6556981350358 330.2907123433839L732.199162397799 330.2907123433839Q732.199162397799 321.40120056399985 730.1800934762985 315.34399379949843Q728.161024554798 309.28678703499713 724.4313555748041 305.4449475593643Q720.6736439709005 301.6031080837314 715.7381421627882 299.89250802523804Q710.802640354676 298.1819079667446 704.5210925988968 298.1819079667446L704.5210925988968 298.1819079667446Q695.2389840847766 298.1819079667446 688.789180585539 301.6031080837314Q682.3113344623916 305.0523508246281 678.8901343454048 312.11909204987967Q675.4689342284179 319.18583327513136 674.6556981350358 330.2907123433839ZM794.5940005969453 392.26491118388424L776.8149770381773 392.26491118388424L776.8149770381773 301.0142129816271L761.0550224009098 301.0142129816271L761.0550224009098 286.06749443774174L776.8149770381773 286.06749443774174L776.8149770381773 269.10170697235594Q776.8149770381773 262.84820184048647 778.6377475923097 257.29576230636013Q780.460518146442 251.74332277223385 785.5081904501932 248.20995215960806Q790.5558627539443 244.67658154698222 799.6416729006964 244.67658154698222L799.6416729006964 244.67658154698222Q802.4459352916693 244.67658154698222 805.1941124348227 244.98505040998924Q807.9142469540664 245.26547664908654 810.438083105942 245.77024387946165Q812.9619192578176 246.27501110983675 814.980988179318 246.8919488358508L814.980988179318 246.8919488358508L814.980988179318 259.6233000908676L804.2687058458016 259.6233000908676Q799.2210335420505 259.6233000908676 796.8934957575431 262.14713624274316Q794.5940005969453 264.6709723946188 794.5940005969453 269.298005339724L794.5940005969453 269.298005339724L794.5940005969453 286.06749443774174L814.980988179318 286.06749443774174L814.980988179318 301.0142129816271L794.5940005969453 301.0142129816271L794.5940005969453 392.26491118388424ZM846.8654515646795 266.07310359010523L829.1144706298212 266.07310359010523L829.1144706298212 246.27501110983675L846.8654515646795 246.27501110983675L846.8654515646795 266.07310359010523ZM846.8654515646795 392.26491118388424L829.1144706298212 392.26491118388424L829.1144706298212 286.06749443774174L846.8654515646795 286.06749443774174L846.8654515646795 392.26491118388424ZM899.3612435236917 394.6765768401209L899.3612435236917 394.6765768401209Q891.0886694703217 394.6765768401209 886.4616365252164 391.56384558614104Q881.8065609562015 388.4230717082514 879.787492034701 383.291271532771Q877.7684231132005 378.131428733381 877.7684231132005 372.2705203362477L877.7684231132005 372.2705203362477L877.7684231132005 301.0142129816271L864.0275373974334 301.0142129816271L864.0275373974334 286.06749443774174L878.1610198479368 286.06749443774174L881.4139642214652 256.37035571733907L895.5474466719685 256.37035571733907L895.5474466719685 286.06749443774174L915.5137948956954 286.06749443774174L915.5137948956954 301.0142129816271L895.5474466719685 301.0142129816271L895.5474466719685 369.6625563126429Q895.5474466719685 374.71022861639403 897.3421746021911 377.2340647682697Q899.1649451563235 379.7579009201453 904.2126174600746 379.7579009201453L904.2126174600746 379.7579009201453L915.5137948956954 379.7579009201453L915.5137948956954 391.45167509050214Q913.4947259741948 392.4612095512523 910.690463583222 393.07814727726634Q907.8581585683394 393.6670423793706 904.9136830578179 394.17180960974576Q901.9972501712061 394.6765768401209 899.3612435236917 394.6765768401209Z " fill="#424369" transform="matrix(0.9557474465372939,0,0,0.9557474465372939,0,-5.530081592609619)"/></g></svg>